<svg xmlns="http://www.w3.org/2000/svg" width="31.356" height="37.781" viewBox="0 0 31.356 37.781">
  <g id="Group_132" data-name="Group 132" transform="translate(-16 -135.219)">
    <g id="Path_114" data-name="Path 114" transform="translate(16 142)" fill="none">
      <path d="M4,0H24a4,4,0,0,1,4,4V27a4,4,0,0,1-4,4H4a4,4,0,0,1-4-4V4A4,4,0,0,1,4,0Z" stroke="none"/>
      <path d="M 4 2 C 2.897199630737305 2 2 2.897199630737305 2 4 L 2 27 C 2 28.1028003692627 2.897199630737305 29 4 29 L 24 29 C 25.1028003692627 29 26 28.1028003692627 26 27 L 26 4 C 26 2.897199630737305 25.1028003692627 2 24 2 L 4 2 M 4 0 L 24 0 C 26.20914077758789 0 28 1.790859222412109 28 4 L 28 27 C 28 29.20914077758789 26.20914077758789 31 24 31 L 4 31 C 1.790859222412109 31 0 29.20914077758789 0 27 L 0 4 C 0 1.790859222412109 1.790859222412109 0 4 0 Z" stroke="none" fill="#fff"/>
    </g>
    <g id="Group_131" data-name="Group 131" transform="translate(39.518 134.937) rotate(3)">
      <g id="Path_113" data-name="Path 113" transform="translate(-4.72 29.209) rotate(-73)" fill="#fff">
        <path d="M 28.53409194946289 3.390355348587036 L 6.488771438598633 3.390355348587036 C 6.030191421508789 3.390355348587036 4.598641872406006 3.238895416259766 3.209761619567871 2.965035438537598 C 1.305987119674683 2.58964729309082 0.7147460579872131 2.235843420028687 0.5467566251754761 2.098214864730835 C 0.708464503288269 1.948877692222595 1.288695931434631 1.553971171379089 3.208441734313965 1.071345448493958 C 4.671801567077637 0.70345538854599 6.076931476593018 0.4999954104423523 6.488771438598633 0.4999954104423523 L 28.53409194946289 0.4999954104423523 C 29.33096122741699 0.4999954104423523 29.97926139831543 1.148305416107178 29.97926139831543 1.945175409317017 C 29.97926139831543 2.742045402526855 29.33096122741699 3.390355348587036 28.53409194946289 3.390355348587036 Z" stroke="none"/>
        <path d="M 6.488771438598633 0.9999954700469971 C 6.138702392578125 0.9999954700469971 4.889482498168945 1.179135322570801 3.546432495117188 1.503045320510864 C 2.700204849243164 1.7071373462677 2.089059829711914 1.902063846588135 1.665428161621094 2.066079139709473 C 2.088623046875 2.203119993209839 2.693412780761719 2.360542297363281 3.524190902709961 2.516345500946045 C 4.808320999145508 2.757165431976318 6.09221076965332 2.890355348587036 6.488771438598633 2.890355348587036 L 28.53409194946289 2.890355348587036 C 29.05526161193848 2.890355348587036 29.47926139831543 2.466345310211182 29.47926139831543 1.945175409317017 C 29.47926139831543 1.424005508422852 29.05526161193848 0.9999954700469971 28.53409194946289 0.9999954700469971 L 6.488771438598633 0.9999954700469971 M 6.488771438598633 -4.529953002929688e-06 L 28.53409194946289 -4.529953002929688e-06 C 29.6083812713623 -4.529953002929688e-06 30.47926139831543 0.8708853721618652 30.47926139831543 1.945175409317017 C 30.47926139831543 3.019465446472168 29.6083812713623 3.890355348587036 28.53409194946289 3.890355348587036 L 6.488771438598633 3.890355348587036 C 5.414472579956055 3.890355348587036 1.9073486328125e-06 3.178965330123901 1.9073486328125e-06 2.10467529296875 C 1.9073486328125e-06 1.030385494232178 5.414472579956055 -4.529953002929688e-06 6.488771438598633 -4.529953002929688e-06 Z" stroke="none" fill="#fff"/>
      </g>
    </g>
    <path id="Path_117" data-name="Path 117" d="M22,150l12.414-.052" fill="none" stroke="#fff" stroke-linecap="round" stroke-width="2"/>
    <path id="Path_118" data-name="Path 118" d="M22,150l12.414-.052" transform="translate(0 7)" fill="none" stroke="#fff" stroke-linecap="round" stroke-width="2"/>
    <path id="Path_119" data-name="Path 119" d="M22,150l12.414-.052" transform="translate(0 14)" fill="none" stroke="#fff" stroke-linecap="round" stroke-width="2"/>
  </g>
</svg>
